<svg xmlns="http://www.w3.org/2000/svg" version="1.1" xmlns:xlink="http://www.w3.org/1999/xlink" xmlns:svgjs="http://svgjs.dev/svgjs" width="1500" height="1500" viewBox="0 0 1500 1500"><rect width="1500" height="1500" fill="#ffffff"></rect><g transform="matrix(0.6666666666666666,0,0,0.6666666666666666,250.00007343750008,187.66666666666674)"><svg viewBox="0 0 320 360" data-background-color="#003366" preserveAspectRatio="xMidYMid meet" height="1687" width="1500" xmlns="http://www.w3.org/2000/svg" xmlns:xlink="http://www.w3.org/1999/xlink"><g id="tight-bounds" transform="matrix(1,0,0,1,0.000023499999997511622,0)"><svg viewBox="0 0 320 360" height="360" width="320"><g><svg></svg></g><g><svg viewBox="0 0 320 360" height="360" width="320"><g><path transform="translate(-74.99272,-51.79039) scale(4.65793,4.65793)" d="M20.6 59.9l0.8 1-0.4-1.3c-0.1-0.6-0.8 0.1-0.4 0.3M21.5 59.3c0.3 0.5 0.6 1 0.6 1.5 0 0.7 0.6 1 1.1 1.2-0.7-0.8-1.1-3-1.7-2.7M59.9 16.9c1.7 0 3.3-0.2 5.1 0.2 4.4 1.1 8.1 3.3 10.6 6.4l7 11.2c0.3 2.8 0.9 5.9 0.8 9.3 0.7 0 0.6-1 1.4-1.2-0.8 2-1.2 4.5-1.4 7.4-0.5-1.6 0-4 0.1-5.3-0.7 1.1-1.1 0.3-1.1-0.2 0.1-0.8-0.3-0.7-0.6-1-1.1-1-1.8-2.1-2.6-3.8 0.5-1.3 0.6-3.2-1-4.2-0.5-0.3-1.1-0.8-1.4-1.6-0.4-1.1-1.1-2.4-0.9-4.1 0.1-0.5-1.5 1.1-2.4 0.4-3.9-2.7-7.8-5.8-12.5-8.4-2.5 0-4.3-0.9-5.2-2-0.8-1-0.2-2.3 1-2.4 0.7 0 1.5-0.2 2.1 0.2 0.1-0.4 0.5-0.9 1-0.9M50 14.6l0.2 0.1c1 0.2 1.5 1.6 2.6 1.1 0 0.7 0.1 1.4-0.1 1.9-0.3 0.8-1.2 0.8-1.9 0.8-6.7-0.4-10.6 2.4-14.7 4.8-1.1 0.7-2.3 1.2-3.2 2.1-4.3 4-9 7.7-10.1 15.1l-0.9 8.2c-0.1 0.9-1.1 1.8-0.9 2.9l0.7 4.9c-0.7-0.7-1.1 0.2-0.9 0.6 0.1 0.3 0.5 1.3 1.1 0.4 0.8 1.5 1.6 4.4 2.7 5.7 3.4 4 7.8 7.6 11.4 11.2 0.9-0.2 1.6-0.2 1.8-0.8 0.3 0.6-0.3 1.2-0.8 1.3 1.6 1 3.4 1.9 5.8 2.1 3.1 0.2 6 0.7 8.7 1.4 1.4-0.4 2.8-0.6 4.3-0.7 0.5 0 0.8-0.8 1.4-1l0.1-1c0.6 0.9 0.5-0.3 0.1-0.9 0.7 0.6 0.9 1.1 1.2 1.5 0-0.3 0.8-1.4 0.8-0.1l0.2-1.3c0.3-0.2 0.4 1.1 0.7 0.2 0.3-0.9 0.9-0.2 1.5-0.5-0.2 0.4-0.1 1.2 0.6 0.7l0.8-0.7c0.5 1.2 1.3 0.7 1.7 0.5 4.4-2.8 8.8-6.1 13-9.4l-0.1 1.3 0.5-1.6c0.5 0.5 0.9 0.1 1.1-0.2 0.6-1 1.4-2 2.7-2.9-1.6 4.3-3.5 7.7-5.9 10.5l-1 1.2c0 0.7-0.2 1.6-1 1.7-0.4 0.1-1.2-0.2-1.8 0.4-0.3 0.4 0.7 1.2-0.1 0.6-0.7-0.5-1.4 0-2.2 0.2-0.6 0.2 0.4 0.8 0.6 1.2 0.2 0.4 0.4 0.8 0.3 1.3l-1.1-1.2c-1.3 0.7-2.1 2-3.2 3-0.5 0.4-0.3 1.1-0.3 1.7-0.7 0-1.5-0.2-1.9 0.2-0.3 0.4-0.2 1-0.2 1.6-1-0.1-1.1-1.6-2-1.3-0.9 0.2-1.9 0.3-2.7 0.8 0.6 1.2-1 0.5-0.8 0.7-1.5-0.9-2.8-1.6-4.4-1-3.4-1.1-7.6-0.6-10.7-0.2 0-0.5 0.1-1-0.1-1.1-0.2 0.5-0.8 0.3-0.7 0.3-1.9-1.3-3.8-2.1-5.8-3.2-1.8 0.2-3.5-0.7-4-1.2-1.4-1.3-3-0.6-4.3-0.9-2.8-0.7-3.8-3.6-4.1-5.6-0.2-1-1-1.4-1.3-1.3-1.3-4.2-3.3-8-4.9-11.9-0.4-1-0.3-2-0.3-3.1 0.5 0.2 1 0.1 0.9-0.6-0.5-3.3-1.7-5.8-3-8.2 0.7-3.4 0.8-7.4 2.4-10.4 1.4-2.7 4-4.1 5.8-6.4 0.6-0.8 0.6-1.9 1.2-2.6 2-2 4-4.1 6.2-5.9 1-0.8 2.2 0 3.7-0.3 0.5-1.8 2.5-3.4 4.4-2.9 0.8 0.2 2.4-1.9 2.9-2.1 0.8-0.3 0.4 0.8 0.4 1.5 1.9-1.5 4.5-2.3 6.9-3.2" fill="#000000" fill-rule="nonzero" stroke="none" stroke-width="1" stroke-linecap="butt" stroke-linejoin="miter" stroke-miterlimit="10" stroke-dasharray="" stroke-dashoffset="0" font-family="none" font-weight="none" font-size="none" text-anchor="none" style="mix-blend-mode: normal" data-fill-palette-color="tertiary"></path></g><g transform="matrix(1,0,0,1,64.00000000000001,142.97203449944436)"><svg viewBox="0 0 191.99999999999997 74.0559310011113" height="74.0559310011113" width="191.99999999999997"><g><svg viewBox="0 0 191.99999999999997 74.0559310011113" height="74.0559310011113" width="191.99999999999997"><g><svg viewBox="0 0 192.00000000000003 74.05593100111132" height="74.0559310011113" width="191.99999999999997"><g transform="matrix(1,0,0,1,0,45.769536335291335)"><svg viewBox="0 0 192.00000000000003 28.28639466581998" height="28.28639466581998" width="192.00000000000003"><g id="textblocktransform"><svg viewBox="0 0 192.00000000000003 28.28639466581998" height="28.28639466581998" width="192.00000000000003" id="textblock"><g><svg viewBox="0 0 192.00000000000003 28.28639466581998" height="28.28639466581998" width="192.00000000000003"><g transform="matrix(1,0,0,1,0,0)"><svg width="192.00000000000003" viewBox="1.7 -34.1 314.92 46.400000000000006" height="28.28639466581998" data-palette-color="#ffffff"><path d="M12.4 0.6L12.4 0.6Q10.45 0.6 8.9-0.15 7.35-0.9 6.45-2.4 5.55-3.9 5.55-6.15L5.55-6.15 5.55-30.55 9.4-30.55 9.4-6.25Q9.4-2.55 12.85-2.55L12.85-2.55Q13.88-2.55 14.84-2.78 15.8-3 17-3.45L17-3.45 17.55-0.65Q16.28-0.1 15.01 0.25 13.75 0.6 12.4 0.6ZM16.95-21.2L1.7-21.2 1.7-23.9 16.95-23.9 16.95-21.2ZM42.05 0L38.65 0 38.15-5.25 38.15-15.5Q38.15-18.73 36.77-20.14 35.4-21.55 32.65-21.55L32.65-21.55Q31.1-21.55 29.84-21.1 28.57-20.65 27.84-19.71 27.1-18.78 27.1-17.3L27.1-17.3 22.75-17.3Q22.75-19.9 24.02-21.49 25.3-23.08 27.54-23.79 29.77-24.5 32.65-24.5L32.65-24.5Q35.4-24.5 37.52-23.58 39.65-22.65 40.85-20.64 42.05-18.63 42.05-15.4L42.05-15.4 42.05 0ZM30.5 0.6L30.5 0.6Q27.55 0.6 25.62-0.45 23.7-1.5 22.75-3.18 21.8-4.85 21.8-6.7L21.8-6.7Q21.8-9.13 23.01-10.65 24.22-12.18 26.32-12.89 28.42-13.6 31.05-13.6L31.05-13.6Q32.92-13.6 34.81-13.23 36.7-12.85 38.5-12.2L38.5-12.2 38.5-9.75Q37-10.35 35.11-10.7 33.22-11.05 31.65-11.05L31.65-11.05Q29.25-11.05 27.6-10.06 25.95-9.08 25.95-6.7L25.95-6.7Q25.95-4.95 27.21-3.7 28.47-2.45 31.25-2.45L31.25-2.45Q33.2-2.45 34.76-3.36 36.32-4.28 37.23-5.65 38.15-7.03 38.15-8.4L38.15-8.4 39.1-8.4Q39.1-6 38.06-3.95 37.02-1.9 35.1-0.65 33.17 0.6 30.5 0.6ZM59.97 0.6L59.97 0.6Q56.5 0.6 54.17-0.39 51.85-1.38 50.65-3.11 49.45-4.85 49.37-7.1L49.37-7.1 53.12-7.1Q53.25-4.83 54.96-3.69 56.67-2.55 59.62-2.55L59.62-2.55Q61.17-2.55 62.47-3.05 63.77-3.55 64.55-4.42 65.32-5.3 65.32-6.4L65.32-6.4Q65.32-7.8 64.3-8.6 63.27-9.4 61.02-10L61.02-10 56.37-11.5Q53.35-12.45 51.73-14.11 50.12-15.78 50.12-18.1L50.12-18.1Q50.12-21 52.67-22.75 55.22-24.5 59.37-24.5L59.37-24.5Q63.77-24.5 66.2-22.7 68.62-20.9 68.72-18.2L68.72-18.2 64.87-18.2Q64.65-19.78 63.27-20.59 61.9-21.4 59.37-21.4L59.37-21.4Q56.95-21.4 55.58-20.31 54.22-19.23 54.22-17.9L54.22-17.9Q54.22-15.43 58.47-14.25L58.47-14.25 63.22-12.65Q66.3-11.73 67.93-10.23 69.57-8.72 69.57-6.4L69.57-6.4Q69.57-4.6 68.4-3 67.22-1.4 65.07-0.4 62.92 0.6 59.97 0.6ZM81.54 0L77.64 0 77.64-34.1 81.54-34.1 81.54 0ZM80.94-9.55L80.94-13.7 93.14-23.9 98.59-23.9 80.94-9.55ZM99.14 0L94.34 0 82.99-15.1 86.94-15.8 99.14 0ZM155.19 0L151.29 0 151.29-14.05Q151.29-17.48 149.65-19.26 148.01-21.05 145.24-21.05L145.24-21.05Q141.99-21.05 140.26-18.54 138.54-16.03 138.54-11.6L138.54-11.6 136.74-11.6Q136.74-14.83 137.38-17.25 138.01-19.68 139.24-21.29 140.46-22.9 142.21-23.7 143.96-24.5 146.19-24.5L146.19-24.5Q149.01-24.5 151.03-23.24 153.04-21.98 154.11-19.63 155.19-17.28 155.19-14.05L155.19-14.05 155.19 0ZM121.59 0L117.69 0 117.69-23.9 121.04-23.9 121.49-19.1Q122.61-21.7 124.65-23.1 126.69-24.5 129.54-24.5L129.54-24.5Q132.36-24.5 134.38-23.24 136.39-21.98 137.46-19.63 138.54-17.28 138.54-14.05L138.54-14.05 138.54 0 134.69 0 134.69-14.05Q134.69-17.48 133.05-19.26 131.41-21.05 128.59-21.05L128.59-21.05Q126.44-21.05 124.86-19.88 123.29-18.7 122.44-16.51 121.59-14.33 121.59-11.3L121.59-11.3 121.59 0ZM182.66 0L179.26 0 178.76-5.25 178.76-15.5Q178.76-18.73 177.39-20.14 176.01-21.55 173.26-21.55L173.26-21.55Q171.71-21.55 170.45-21.1 169.19-20.65 168.45-19.71 167.71-18.78 167.71-17.3L167.71-17.3 163.36-17.3Q163.36-19.9 164.64-21.49 165.91-23.08 168.15-23.79 170.39-24.5 173.26-24.5L173.26-24.5Q176.01-24.5 178.14-23.58 180.26-22.65 181.46-20.64 182.66-18.63 182.66-15.4L182.66-15.4 182.66 0ZM171.11 0.6L171.11 0.6Q168.16 0.6 166.24-0.45 164.31-1.5 163.36-3.18 162.41-4.85 162.41-6.7L162.41-6.7Q162.41-9.13 163.62-10.65 164.84-12.18 166.94-12.89 169.04-13.6 171.66-13.6L171.66-13.6Q173.54-13.6 175.42-13.23 177.31-12.85 179.11-12.2L179.11-12.2 179.11-9.75Q177.61-10.35 175.72-10.7 173.84-11.05 172.26-11.05L172.26-11.05Q169.86-11.05 168.21-10.06 166.56-9.08 166.56-6.7L166.56-6.7Q166.56-4.95 167.82-3.7 169.09-2.45 171.86-2.45L171.86-2.45Q173.81-2.45 175.37-3.36 176.94-4.28 177.85-5.65 178.76-7.03 178.76-8.4L178.76-8.4 179.71-8.4Q179.71-6 178.67-3.95 177.64-1.9 175.71-0.65 173.79 0.6 171.11 0.6ZM212.83 0L208.98 0 208.98-14.05Q208.98-17.48 207.35-19.26 205.71-21.05 202.88-21.05L202.88-21.05Q200.73-21.05 199.16-19.88 197.58-18.7 196.73-16.51 195.88-14.33 195.88-11.3L195.88-11.3 194.38-11.3Q194.38-15.48 195.48-18.43 196.58-21.38 198.7-22.94 200.81-24.5 203.83-24.5L203.83-24.5Q206.66-24.5 208.67-23.24 210.68-21.98 211.76-19.63 212.83-17.28 212.83-14.05L212.83-14.05 212.83 0ZM195.88 0L191.98 0 191.98-23.9 195.33-23.9 195.88-18.4 195.88 0ZM240.36 0L236.96 0 236.46-5.25 236.46-15.5Q236.46-18.73 235.08-20.14 233.71-21.55 230.96-21.55L230.96-21.55Q229.41-21.55 228.14-21.1 226.88-20.65 226.14-19.71 225.41-18.78 225.41-17.3L225.41-17.3 221.06-17.3Q221.06-19.9 222.33-21.49 223.61-23.08 225.84-23.79 228.08-24.5 230.96-24.5L230.96-24.5Q233.71-24.5 235.83-23.58 237.96-22.65 239.16-20.64 240.36-18.63 240.36-15.4L240.36-15.4 240.36 0ZM228.81 0.6L228.81 0.6Q225.86 0.6 223.93-0.45 222.01-1.5 221.06-3.18 220.11-4.85 220.11-6.7L220.11-6.7Q220.11-9.13 221.32-10.65 222.53-12.18 224.63-12.89 226.73-13.6 229.36-13.6L229.36-13.6Q231.23-13.6 233.12-13.23 235.01-12.85 236.81-12.2L236.81-12.2 236.81-9.75Q235.31-10.35 233.42-10.7 231.53-11.05 229.96-11.05L229.96-11.05Q227.56-11.05 225.91-10.06 224.26-9.08 224.26-6.7L224.26-6.7Q224.26-4.95 225.52-3.7 226.78-2.45 229.56-2.45L229.56-2.45Q231.51-2.45 233.07-3.36 234.63-4.28 235.54-5.65 236.46-7.03 236.46-8.4L236.46-8.4 237.41-8.4Q237.41-6 236.37-3.95 235.33-1.9 233.41-0.65 231.48 0.6 228.81 0.6ZM258.13 12.3L258.13 12.3Q254.45 12.3 251.75 11.26 249.05 10.23 247.57 8.49 246.08 6.75 246.08 4.65L246.08 4.65Q246.08 1.88 248.12 0.41 250.15-1.05 253.38-1.05L253.38-1.05 255.53 0.3Q252.83 0.3 251.35 1.43 249.88 2.55 249.88 4.5L249.88 4.5Q249.88 6.45 251.98 7.8 254.08 9.15 258.13 9.15L258.13 9.15Q261.13 9.15 263.39 8.29 265.65 7.43 266.92 6.04 268.18 4.65 268.18 3.05L268.18 3.05Q268.18 1.93 267.35 1.11 266.53 0.3 264.83 0.3L264.83 0.3 255.53 0.3Q253.1 0.3 251.34-0.44 249.58-1.18 248.63-2.38 247.68-3.58 247.68-5L247.68-5Q247.68-6.5 248.53-7.55 249.38-8.6 250.74-9.15 252.1-9.7 253.68-9.7L253.68-9.7 254.43-8.25Q253.68-8.25 252.92-7.91 252.15-7.58 251.64-6.91 251.13-6.25 251.13-5.25L251.13-5.25Q251.13-4.1 252.08-3.33 253.03-2.55 255.53-2.55L255.53-2.55 264.83-2.55Q268.2-2.55 270.14-1.13 272.08 0.3 272.08 2.85L272.08 2.85Q272.08 5.2 270.4 7.36 268.73 9.53 265.6 10.91 262.48 12.3 258.13 12.3ZM258.83-7L258.83-7Q256.08-7 253.87-8.1 251.65-9.2 250.37-11.18 249.08-13.15 249.08-15.75L249.08-15.75Q249.08-18.38 250.37-20.35 251.65-22.33 253.87-23.41 256.08-24.5 258.83-24.5L258.83-24.5Q261.5-24.5 263.69-23.41 265.88-22.33 267.18-20.35 268.48-18.38 268.48-15.75L268.48-15.75Q268.48-13.15 267.18-11.18 265.88-9.2 263.69-8.1 261.5-7 258.83-7ZM258.83-9.8L258.83-9.8Q261.58-9.8 263.1-11.5 264.63-13.2 264.63-15.75L264.63-15.75Q264.63-18.38 263.1-20.01 261.58-21.65 258.83-21.65L258.83-21.65Q256.1-21.65 254.54-20.01 252.98-18.38 252.98-15.75L252.98-15.75Q252.98-13.2 254.54-11.5 256.1-9.8 258.83-9.8ZM266.68-20.7L266.68-20.7 264.83-21.45Q264.83-23.55 265.65-25.14 266.48-26.73 268-27.61 269.53-28.5 271.63-28.5L271.63-28.5 271.33-24.65Q269.08-24.65 267.88-23.69 266.68-22.73 266.68-20.7ZM286.2 0.6L286.2 0.6Q283.1 0.6 280.66-0.99 278.23-2.58 276.81-5.4 275.4-8.22 275.4-11.9L275.4-11.9Q275.4-15.83 276.8-18.65 278.2-21.48 280.64-22.99 283.08-24.5 286.2-24.5L286.2-24.5Q288.93-24.5 290.85-23.4 292.78-22.3 293.95-20.43 295.13-18.55 295.59-16.19 296.05-13.83 295.85-11.3L295.85-11.3 278.55-11.3 278.55-13.7 293.28-13.7 292.13-12.95Q292.2-14.43 291.96-15.9 291.73-17.38 291.08-18.61 290.43-19.85 289.25-20.6 288.08-21.35 286.25-21.35L286.25-21.35Q283.95-21.35 282.4-20.18 280.85-19 280.08-17.09 279.3-15.18 279.3-12.95L279.3-12.95 279.3-11.35Q279.3-8.85 280.06-6.88 280.83-4.9 282.35-3.75 283.88-2.6 286.2-2.6L286.2-2.6Q288.53-2.6 290.03-3.73 291.53-4.85 291.85-7.05L291.85-7.05 295.9-7.05Q295.53-4.67 294.2-2.96 292.88-1.25 290.83-0.33 288.78 0.6 286.2 0.6ZM307.47 0L303.57 0 303.57-23.95 307.47-23.95 307.47 0ZM307.47-10.8L306.27-10.8Q306.27-15.35 307.15-18.36 308.02-21.38 309.71-22.86 311.4-24.35 313.82-24.35L313.82-24.35Q314.62-24.35 315.29-24.24 315.95-24.13 316.62-23.9L316.62-23.9 316.37-20.05Q315.67-20.28 314.85-20.44 314.02-20.6 313.37-20.6L313.37-20.6Q311.25-20.6 309.95-19.39 308.65-18.18 308.06-15.98 307.47-13.78 307.47-10.8L307.47-10.8Z" opacity="1" transform="matrix(1,0,0,1,0,0)" fill="#000000" class="wordmark-text-0" data-fill-palette-color="primary" id="text-0"></path></svg></g></svg></g></svg></g></svg></g><g transform="matrix(1,0,0,1,75.73799563380788,0)"><svg viewBox="0 0 40.524008732384274 39.09179742816322" height="39.09179742816322" width="40.524008732384274"><g><svg xmlns="http://www.w3.org/2000/svg" data-name="list 1 tick" viewBox="8.150088894702716 8.32173908991432 82.19737635098711 79.29233276646339" x="0" y="0" height="39.09179742816322" width="40.524008732384274" class="icon-icon-0" data-fill-palette-color="accent" id="icon-0"><path d="M25.7 52.11V47c0-1.47 0.68-4.4-0.63-5.56s-5-0.7-6.65-0.55a60.44 60.44 0 0 0-9.1 1.78 0.88 0.88 0 0 0-0.39 1.48A61 61 0 0 0 8.45 58a0.93 0.93 0 0 0 0.84 1.59 34.42 34.42 0 0 1 15-0.4 0.91 0.91 0 0 0 1-0.42c0.7 0.08 1.44-0.6 0.92-1.3C25.23 56.18 25.7 53.61 25.7 52.11ZM10.24 57.52a59.1 59.1 0 0 1 0.52-13.29 51.5 51.5 0 0 1 7.67-1.48 13.64 13.64 0 0 1 4.17-0.06c1.77 0.43 1.3 1.49 1.29 3.07l0 7.62a13.17 13.17 0 0 0 0.2 3.93A36.61 36.61 0 0 0 10.24 57.52Z" fill="#000000" data-fill-palette-color="accent"></path><path d="M25.7 80.08V75c0-1.47 0.68-4.4-0.63-5.56s-5-0.7-6.65-0.55a60.43 60.43 0 0 0-9.1 1.78 0.88 0.88 0 0 0-0.39 1.48A61 61 0 0 0 8.45 86a0.93 0.93 0 0 0 0.84 1.59 34.42 34.42 0 0 1 15-0.4 0.91 0.91 0 0 0 1-0.42c0.7 0.08 1.44-0.6 0.92-1.3C25.23 84.15 25.7 81.58 25.7 80.08ZM10.24 85.49a59.1 59.1 0 0 1 0.52-13.29 51.49 51.49 0 0 1 7.67-1.48 13.64 13.64 0 0 1 4.17-0.06c1.77 0.43 1.3 1.49 1.29 3.07l0 7.62a13.17 13.17 0 0 0 0.2 3.93A36.61 36.61 0 0 0 10.24 85.49Z" fill="#000000" data-fill-palette-color="accent"></path><path d="M66.13 24c7.54 1.26 14.95 2.29 22.37-0.12 1.11-0.36 0.64-2.12-0.48-1.76-9.26 3-18.42 0.37-27.73-0.9a87.81 87.81 0 0 0-25.09 0.31c-1.16 0.17-0.67 1.93 0.48 1.76C46 21.76 55.87 22.3 66.13 24Z" fill="#000000" data-fill-palette-color="accent"></path><path d="M61.5 48a87.81 87.81 0 0 0-25.09 0.31c-1.16 0.17-0.67 1.93 0.48 1.76 10.31-1.56 20.19-1 30.45 0.7 7.54 1.26 14.95 2.29 22.37-0.12 1.11-0.36 0.64-2.12-0.48-1.76C80 51.9 70.81 49.27 61.5 48Z" fill="#000000" data-fill-palette-color="accent"></path><path d="M89.23 75.65c-9.26 3-18.42 0.37-27.73-0.9a87.81 87.81 0 0 0-25.09 0.31c-1.16 0.17-0.67 1.93 0.48 1.76 10.31-1.56 20.19-1 30.45 0.7 7.54 1.26 14.95 2.29 22.37-0.12C90.83 77 90.35 75.28 89.23 75.65Z" fill="#000000" data-fill-palette-color="accent"></path><path d="M28 9c-1 1.46-2 3-3 4.46-1.49-1.16-4.89-0.63-6.54-0.48a60.43 60.43 0 0 0-9.1 1.78 0.88 0.88 0 0 0-0.39 1.48A61 61 0 0 0 8.45 30a0.93 0.93 0 0 0 0.84 1.59 35.05 35.05 0 0 1 7.22-1c0.14 0.15 0.27 0.31 0.42 0.45a1.48 1.48 0 0 0 2.38-0.43 35 35 0 0 1 5 0.59 0.91 0.91 0 0 0 1-0.42c0.7 0.08 1.44-0.6 0.92-1.3-0.95-1.29-0.48-3.86-0.48-5.36V19.06c0-0.36 0-0.8 0.08-1.29Q28 14 30.55 10.48C31.68 8.91 29.08 7.41 28 9ZM22.6 14.72a1.7 1.7 0 0 1 1.14 0.69 106.16 106.16 0 0 0-6.19 11.86c-2.25-2.73-4-5.85-6.36-8.48a1.38 1.38 0 0 0-0.72-0.44q0.12-1 0.28-2.09a51.5 51.5 0 0 1 7.67-1.48A13.64 13.64 0 0 1 22.6 14.72ZM10.24 29.55a60.21 60.21 0 0 1-0.08-7.36c1.72 2.16 3.15 4.52 4.86 6.69A36.85 36.85 0 0 0 10.24 29.55Zm13.83-0.2a37.82 37.82 0 0 0-4-0.48q1.73-3.95 3.78-7.71v4.26A13.17 13.17 0 0 0 24.07 29.35Z" fill="#000000" data-fill-palette-color="accent"></path></svg></g></svg></g><g></g></svg></g></svg></g></svg></g></svg></g><defs></defs></svg><rect width="320" height="360" fill="none" stroke="none" visibility="hidden"></rect></g></svg></g></svg>